<mxfile host="Electron" modified="2024-12-18T05:16:51.131Z" agent="Mozilla/5.0 (Windows NT 10.0; Win64; x64) AppleWebKit/537.36 (KHTML, like Gecko) draw.io/22.0.3 Chrome/114.0.5735.289 Electron/25.8.4 Safari/537.36" etag="gZQ2QxAgu3zzEiVq0Spn" version="22.0.3" type="device">
  <diagram name="Страница — 1" id="FpA6ZYfyXOMUWuVZo6k5">
    <mxGraphModel dx="1024" dy="603" grid="1" gridSize="10" guides="1" tooltips="1" connect="1" arrows="1" fold="1" page="1" pageScale="1" pageWidth="827" pageHeight="1169" math="0" shadow="0">
      <root>
        <mxCell id="0" />
        <mxCell id="1" parent="0" />
        <mxCell id="xx0M3tBOqd3Wi22xsOb5-1" value="Программа" style="swimlane;whiteSpace=wrap;html=1;" vertex="1" parent="1">
          <mxGeometry x="320" y="140" width="200" height="320" as="geometry" />
        </mxCell>
        <mxCell id="xx0M3tBOqd3Wi22xsOb5-2" value="Построить график" style="ellipse;html=1;whiteSpace=wrap;" vertex="1" parent="xx0M3tBOqd3Wi22xsOb5-1">
          <mxGeometry x="40" y="30" width="130" height="34" as="geometry" />
        </mxCell>
        <mxCell id="xx0M3tBOqd3Wi22xsOb5-3" value="Остановить построение" style="ellipse;html=1;whiteSpace=wrap;" vertex="1" parent="xx0M3tBOqd3Wi22xsOb5-1">
          <mxGeometry x="40" y="80" width="130" height="34" as="geometry" />
        </mxCell>
        <mxCell id="xx0M3tBOqd3Wi22xsOb5-4" value="Продолжить построение" style="ellipse;html=1;whiteSpace=wrap;" vertex="1" parent="xx0M3tBOqd3Wi22xsOb5-1">
          <mxGeometry x="40" y="130" width="130" height="34" as="geometry" />
        </mxCell>
        <mxCell id="xx0M3tBOqd3Wi22xsOb5-5" value="Очистить график" style="ellipse;html=1;whiteSpace=wrap;" vertex="1" parent="xx0M3tBOqd3Wi22xsOb5-1">
          <mxGeometry x="40" y="180" width="130" height="34" as="geometry" />
        </mxCell>
        <mxCell id="xx0M3tBOqd3Wi22xsOb5-6" value="Вычислить метрики" style="ellipse;html=1;whiteSpace=wrap;" vertex="1" parent="xx0M3tBOqd3Wi22xsOb5-1">
          <mxGeometry x="40" y="230" width="130" height="34" as="geometry" />
        </mxCell>
        <mxCell id="xx0M3tBOqd3Wi22xsOb5-21" value="Выйти из программы" style="ellipse;html=1;whiteSpace=wrap;" vertex="1" parent="xx0M3tBOqd3Wi22xsOb5-1">
          <mxGeometry x="40" y="280" width="130" height="34" as="geometry" />
        </mxCell>
        <mxCell id="xx0M3tBOqd3Wi22xsOb5-8" value="Пользователь" style="shape=umlActor;verticalLabelPosition=bottom;verticalAlign=top;html=1;outlineConnect=0;" vertex="1" parent="1">
          <mxGeometry x="220" y="294" width="30" height="60" as="geometry" />
        </mxCell>
        <mxCell id="xx0M3tBOqd3Wi22xsOb5-22" value="" style="endArrow=none;html=1;rounded=0;entryX=0;entryY=0.5;entryDx=0;entryDy=0;exitX=1;exitY=0.3333333333333333;exitDx=0;exitDy=0;exitPerimeter=0;" edge="1" parent="1" source="xx0M3tBOqd3Wi22xsOb5-8" target="xx0M3tBOqd3Wi22xsOb5-2">
          <mxGeometry width="50" height="50" relative="1" as="geometry">
            <mxPoint x="200" y="200" as="sourcePoint" />
            <mxPoint x="250" y="150" as="targetPoint" />
          </mxGeometry>
        </mxCell>
        <mxCell id="xx0M3tBOqd3Wi22xsOb5-23" value="" style="endArrow=none;html=1;rounded=0;exitX=1;exitY=0.3333333333333333;exitDx=0;exitDy=0;exitPerimeter=0;entryX=0;entryY=0.5;entryDx=0;entryDy=0;" edge="1" parent="1" source="xx0M3tBOqd3Wi22xsOb5-8" target="xx0M3tBOqd3Wi22xsOb5-3">
          <mxGeometry width="50" height="50" relative="1" as="geometry">
            <mxPoint x="280" y="330" as="sourcePoint" />
            <mxPoint x="330" y="280" as="targetPoint" />
          </mxGeometry>
        </mxCell>
        <mxCell id="xx0M3tBOqd3Wi22xsOb5-24" value="" style="endArrow=none;html=1;rounded=0;exitX=1;exitY=0.3333333333333333;exitDx=0;exitDy=0;exitPerimeter=0;entryX=0;entryY=0.5;entryDx=0;entryDy=0;" edge="1" parent="1" source="xx0M3tBOqd3Wi22xsOb5-8" target="xx0M3tBOqd3Wi22xsOb5-4">
          <mxGeometry width="50" height="50" relative="1" as="geometry">
            <mxPoint x="260" y="313" as="sourcePoint" />
            <mxPoint x="370" y="247" as="targetPoint" />
          </mxGeometry>
        </mxCell>
        <mxCell id="xx0M3tBOqd3Wi22xsOb5-25" value="" style="endArrow=none;html=1;rounded=0;exitX=1;exitY=0.3333333333333333;exitDx=0;exitDy=0;exitPerimeter=0;entryX=0;entryY=0.5;entryDx=0;entryDy=0;" edge="1" parent="1" source="xx0M3tBOqd3Wi22xsOb5-8" target="xx0M3tBOqd3Wi22xsOb5-5">
          <mxGeometry width="50" height="50" relative="1" as="geometry">
            <mxPoint x="270" y="323" as="sourcePoint" />
            <mxPoint x="380" y="257" as="targetPoint" />
          </mxGeometry>
        </mxCell>
        <mxCell id="xx0M3tBOqd3Wi22xsOb5-26" value="" style="endArrow=none;html=1;rounded=0;exitX=1;exitY=0.3333333333333333;exitDx=0;exitDy=0;exitPerimeter=0;entryX=0;entryY=0.5;entryDx=0;entryDy=0;" edge="1" parent="1" source="xx0M3tBOqd3Wi22xsOb5-8" target="xx0M3tBOqd3Wi22xsOb5-6">
          <mxGeometry width="50" height="50" relative="1" as="geometry">
            <mxPoint x="280" y="333" as="sourcePoint" />
            <mxPoint x="390" y="267" as="targetPoint" />
          </mxGeometry>
        </mxCell>
        <mxCell id="xx0M3tBOqd3Wi22xsOb5-27" value="" style="endArrow=none;html=1;rounded=0;exitX=1;exitY=0.3333333333333333;exitDx=0;exitDy=0;exitPerimeter=0;entryX=0;entryY=0.5;entryDx=0;entryDy=0;" edge="1" parent="1" source="xx0M3tBOqd3Wi22xsOb5-8" target="xx0M3tBOqd3Wi22xsOb5-21">
          <mxGeometry width="50" height="50" relative="1" as="geometry">
            <mxPoint x="290" y="343" as="sourcePoint" />
            <mxPoint x="400" y="277" as="targetPoint" />
          </mxGeometry>
        </mxCell>
      </root>
    </mxGraphModel>
  </diagram>
</mxfile>
